# xmcd
#
# Track frame offsets: 
#        150
#        21912
#        37595
#        56637
#        73590
#        92237
#        125195
#        138690
#        158137
#        183720
#        197672
#        215167
#        230127
#        244070
#        261572
#
# Disc length: 3755 seconds
#
# Revision: 3
# Processed by: cddbd v1.5.2PL0 Copyright (c) Steve Scherf et al.
# Submitted via: ExactAudioCopy v0.99pb4
#
DISCID=ed0ea90f
DTITLE=Lurrie Bell - Kiss Of Sweet Blues
DYEAR=1998
DGENRE=Blues
TTITLE0=Bring Yourself Back To Me
TTITLE1=You're Gonna Be Sorry
TTITLE2=Kiss Of Sweet Blues
TTITLE3=Wicked Hearted Woman
TTITLE4=Blues And Black Coffee
TTITLE5=Hiding In The Spotlight
TTITLE6=Lurrie's Guitar Boogie
TTITLE7=Bad Dog
TTITLE8=Somebody Help Me
TTITLE9=Drivin' Through The Darkness
TTITLE10=Lonesome Guitar Man
TTITLE11=Build Myself A Mansion
TTITLE12=Lurrie's Funky Groove Thang
TTITLE13=Don't Ask Me Why
TTITLE14=After Hours
EXTD=
EXTT0=
EXTT1=
EXTT2=
EXTT3=
EXTT4=
EXTT5=
EXTT6=
EXTT7=
EXTT8=
EXTT9=
EXTT10=
EXTT11=
EXTT12=
EXTT13=
EXTT14=
PLAYORDER=
